# xmcd CD database file
#
# Track frame offsets:
#	150
#	12544
#	29293
#	53995
#	67911
#	86394
#	110974
#	126229
#	147647
#	165093
#	192981
#	211106
#
# Disc length: 3118 seconds
#
# Revision: 0
# Processed by: cddbd v1.4PL0 Copyright (c) Steve Scherf et al.
# Submitted via: CDex 1.50
#
DISCID=a70c2c0c
DTITLE=Livia Barbosa - Cristalino
DYEAR=2003
DGENRE=Jazz
TTITLE0=Let's face the music and dance
TTITLE1=Pra Jobim
TTITLE2=Come rain or come shine
TTITLE3=All or nothing at all
TTITLE4=But not for me
TTITLE5=My romance
TTITLE6=Beiral
TTITLE7=Insensatez
TTITLE8=Luck be a lady
TTITLE9=You go to my head
TTITLE10=Gentle and soft
TTITLE11=Summertime
EXTD=YEAR: 2003
EXTT0=
EXTT1=
EXTT2=
EXTT3=
EXTT4=
EXTT5=
EXTT6=
EXTT7=
EXTT8=
EXTT9=
EXTT10=
EXTT11=
PLAYORDER=
